<?xml version="1.0" encoding="utf-8"?>
<!-- Generator: Adobe Illustrator 22.0.0, SVG Export Plug-In . SVG Version: 6.00 Build 0)  -->
<svg version="1.0" id="Layer_1" xmlns="http://www.w3.org/2000/svg" xmlns:xlink="http://www.w3.org/1999/xlink" x="0px" y="0px"
	 viewBox="0 0 5000 4000" style="enable-background:new 0 0 5000 4000;" xml:space="preserve">
<style type="text/css">
	.st0{fill:#387BBF;}
</style>
<g>
	<g>
		<path class="st0" d="M1712,1095c17.3,8.4,77.6,19.2,107.7,55.2c106.6,127.6,210.9,258.7,300.2,398.6c59.3,93,52,195.1-52,267.5
			c-136.5,95-149.4,230.5-54.3,341.1c136.9,159.2,297.8,300.1,461.3,433c80.9,65.8,178.2,49.1,248.9-47.1
			c105.7-143.9,234.2-147.3,373.1-48.5c77.8,55.3,153.6,113.4,231.4,168.6c127.2,90.2,216.7,189.9,123.7,358.4
			c-103.3,187.4-327.9,318.6-482.4,257c-783.9-312.6-1339.5-860.9-1650.6-1645.8C1219,1380.3,1424.7,1088.7,1712,1095z"/>
		<path class="st0" d="M3466.9,2108.5c-0.2,0.3-0.3,0.6-0.5,0.9c-24.6,47.1-90.9,51-120.4,6.9c-14.9-22.2-26.2-44.7-28.7-68.2
			c-50.2-479.2-308.9-752.1-793.2-832.4c-14.5-2.4-28.5-7.3-42.4-13.6c-55.9-25.7-52.6-106.7,4.7-128.9
			c18.5-7.1,36.8-11.4,54.8-10.1c525.1,36.8,919.7,448.9,933.7,1011.4C3475.2,2086.3,3472.4,2098,3466.9,2108.5z"/>
		<path class="st0" d="M3150.6,2061.3c-0.2,0.3-0.4,0.6-0.6,0.9c-29.9,44.1-96.2,42.8-123-3.2c-8.5-14.5-14.9-29.4-17.3-44.9
			c-46.1-292.8-218.5-450.7-502.9-506.4c-14-2.7-26.9-10.8-39.4-21.5c-38.9-33.3-32.7-96,12.6-119.8c10.6-5.6,21.3-9.2,31.9-9.3
			c311.4-2.5,641.4,320.1,651.4,660C3163.7,2032.9,3159.5,2048.3,3150.6,2061.3z"/>
		<path class="st0" d="M2861,2085l-0.6,0.7c-23.7,27.6-66.1,30.3-92.5,5.1c-12.7-12.2-22.8-24.8-25.2-38.7
			c-25.5-148.2-104.5-235.9-254.7-267.6c-33.3-7-84.4-47.7-84.1-72.3c0.8-62.8,59.9-68.1,111.7-65.8
			c165.4,7.3,381.5,160.5,360.8,392.6C2874.9,2055.6,2872,2072.2,2861,2085z"/>
	</g>
	<g>
		<path class="st0" d="M2499.2,3832.1c-1010.3,0-1832.3-822-1832.3-1832.3s822-1832.3,1832.3-1832.3s1832.3,822,1832.3,1832.3
			S3509.6,3832.1,2499.2,3832.1z M2499.2,279.2c-948.7,0-1720.6,771.9-1720.6,1720.6s771.9,1720.6,1720.6,1720.6
			s1720.6-771.9,1720.6-1720.6S3448,279.2,2499.2,279.2z"/>
	</g>
</g>
</svg>
